<svg width="10" height="10" viewBox="0 0 10 10" fill="none" xmlns="http://www.w3.org/2000/svg">
<path fill-rule="evenodd" clip-rule="evenodd" d="M1.40078 1.4002C1.40078 1.08194 1.52721 0.776711 1.75225 0.551667C1.9773 0.326623 2.28252 0.200195 2.60078 0.200195H7.40078C7.71904 0.200195 8.02427 0.326623 8.24931 0.551667C8.47435 0.776711 8.60078 1.08194 8.60078 1.4002V8.6002C8.75991 8.6002 8.91252 8.66341 9.02505 8.77593C9.13757 8.88845 9.20078 9.04107 9.20078 9.2002C9.20078 9.35933 9.13757 9.51194 9.02505 9.62446C8.91252 9.73698 8.75991 9.8002 8.60078 9.8002H6.80078C6.64165 9.8002 6.48904 9.73698 6.37652 9.62446C6.264 9.51194 6.20078 9.35933 6.20078 9.2002V8.0002C6.20078 7.84107 6.13757 7.68845 6.02504 7.57593C5.91252 7.46341 5.75991 7.4002 5.60078 7.4002H4.40078C4.24165 7.4002 4.08904 7.46341 3.97652 7.57593C3.864 7.68845 3.80078 7.84107 3.80078 8.0002V9.2002C3.80078 9.35933 3.73757 9.51194 3.62505 9.62446C3.51252 9.73698 3.35991 9.8002 3.20078 9.8002H1.40078C1.24165 9.8002 1.08904 9.73698 0.976517 9.62446C0.863995 9.51194 0.800781 9.35933 0.800781 9.2002C0.800781 9.04107 0.863995 8.88845 0.976517 8.77593C1.08904 8.66341 1.24165 8.6002 1.40078 8.6002V1.4002ZM3.20078 2.0002H4.40078V3.2002H3.20078V2.0002ZM4.40078 4.4002H3.20078V5.6002H4.40078V4.4002ZM5.60078 2.0002H6.80078V3.2002H5.60078V2.0002ZM6.80078 4.4002H5.60078V5.6002H6.80078V4.4002Z" fill="#006766"/>
</svg>
