<svg width="32" height="32" viewBox="0 0 32 32" fill="none" xmlns="http://www.w3.org/2000/svg">
<g filter="url(#filter0_d_41153_67158)">
<rect x="2" y="1" width="28" height="28" rx="4" fill="#FEE2E2"/>
<rect x="2.5" y="1.5" width="27" height="27" rx="3.5" stroke="#EF4444"/>
<path fill-rule="evenodd" clip-rule="evenodd" d="M15 7C14.8143 7.0001 14.6324 7.05188 14.4745 7.14955C14.3166 7.24722 14.189 7.38692 14.106 7.553L13.382 9H10C9.73478 9 9.48043 9.10536 9.29289 9.29289C9.10536 9.48043 9 9.73478 9 10C9 10.2652 9.10536 10.5196 9.29289 10.7071C9.48043 10.8946 9.73478 11 10 11V21C10 21.5304 10.2107 22.0391 10.5858 22.4142C10.9609 22.7893 11.4696 23 12 23H20C20.5304 23 21.0391 22.7893 21.4142 22.4142C21.7893 22.0391 22 21.5304 22 21V11C22.2652 11 22.5196 10.8946 22.7071 10.7071C22.8946 10.5196 23 10.2652 23 10C23 9.73478 22.8946 9.48043 22.7071 9.29289C22.5196 9.10536 22.2652 9 22 9H18.618L17.894 7.553C17.811 7.38692 17.6834 7.24722 17.5255 7.14955C17.3676 7.05188 17.1857 7.0001 17 7H15ZM13 13C13 12.7348 13.1054 12.4804 13.2929 12.2929C13.4804 12.1054 13.7348 12 14 12C14.2652 12 14.5196 12.1054 14.7071 12.2929C14.8946 12.4804 15 12.7348 15 13V19C15 19.2652 14.8946 19.5196 14.7071 19.7071C14.5196 19.8946 14.2652 20 14 20C13.7348 20 13.4804 19.8946 13.2929 19.7071C13.1054 19.5196 13 19.2652 13 19V13ZM18 12C17.7348 12 17.4804 12.1054 17.2929 12.2929C17.1054 12.4804 17 12.7348 17 13V19C17 19.2652 17.1054 19.5196 17.2929 19.7071C17.4804 19.8946 17.7348 20 18 20C18.2652 20 18.5196 19.8946 18.7071 19.7071C18.8946 19.5196 19 19.2652 19 19V13C19 12.7348 18.8946 12.4804 18.7071 12.2929C18.5196 12.1054 18.2652 12 18 12Z" fill="#DC2626"/>
</g>
<defs>
<filter id="filter0_d_41153_67158" x="0" y="0" width="32" height="32" filterUnits="userSpaceOnUse" color-interpolation-filters="sRGB">
<feFlood flood-opacity="0" result="BackgroundImageFix"/>
<feColorMatrix in="SourceAlpha" type="matrix" values="0 0 0 0 0 0 0 0 0 0 0 0 0 0 0 0 0 0 127 0" result="hardAlpha"/>
<feOffset dy="1"/>
<feGaussianBlur stdDeviation="1"/>
<feColorMatrix type="matrix" values="0 0 0 0 0 0 0 0 0 0 0 0 0 0 0 0 0 0 0.05 0"/>
<feBlend mode="normal" in2="BackgroundImageFix" result="effect1_dropShadow_41153_67158"/>
<feBlend mode="normal" in="SourceGraphic" in2="effect1_dropShadow_41153_67158" result="shape"/>
</filter>
</defs>
</svg>
