<svg width="12" height="14" viewBox="0 0 12 14" fill="none" xmlns="http://www.w3.org/2000/svg">
<path fill-rule="evenodd" clip-rule="evenodd" d="M0.400024 12.5996C0.400024 12.3874 0.48431 12.184 0.634339 12.0339C0.784368 11.8839 0.987851 11.7996 1.20002 11.7996H10.8C11.0122 11.7996 11.2157 11.8839 11.3657 12.0339C11.5157 12.184 11.6 12.3874 11.6 12.5996C11.6 12.8118 11.5157 13.0153 11.3657 13.1653C11.2157 13.3153 11.0122 13.3996 10.8 13.3996H1.20002C0.987851 13.3996 0.784368 13.3153 0.634339 13.1653C0.48431 13.0153 0.400024 12.8118 0.400024 12.5996ZM3.03442 6.43401C3.18445 6.28403 3.38789 6.19978 3.60002 6.19978C3.81216 6.19978 4.0156 6.28403 4.16562 6.43401L5.20002 7.46841V1.39961C5.20002 1.18744 5.28431 0.983953 5.43434 0.833924C5.58437 0.683895 5.78785 0.599609 6.00002 0.599609C6.2122 0.599609 6.41568 0.683895 6.56571 0.833924C6.71574 0.983953 6.80002 1.18744 6.80002 1.39961V7.46841L7.83443 6.43401C7.90822 6.3576 7.9965 6.29665 8.0941 6.25473C8.1917 6.2128 8.29668 6.19073 8.4029 6.18981C8.50913 6.18889 8.61447 6.20913 8.71279 6.24935C8.81111 6.28958 8.90043 6.34898 8.97554 6.42409C9.05066 6.49921 9.11006 6.58853 9.15028 6.68685C9.19051 6.78516 9.21075 6.89051 9.20983 6.99673C9.2089 7.10295 9.18683 7.20793 9.14491 7.30553C9.10298 7.40314 9.04203 7.49141 8.96562 7.56521L6.56562 9.96521C6.4156 10.1152 6.21216 10.1994 6.00002 10.1994C5.78789 10.1994 5.58445 10.1152 5.43442 9.96521L3.03442 7.56521C2.88445 7.41519 2.8002 7.21174 2.8002 6.99961C2.8002 6.78748 2.88445 6.58403 3.03442 6.43401Z" fill="#006766"/>
</svg>
