<svg width="32" height="32" viewBox="0 0 32 32" fill="none" xmlns="http://www.w3.org/2000/svg">
<g filter="url(#filter0_d_40718_42643)">
<rect x="2" y="1" width="28" height="28" rx="4" fill="#F1FFFE"/>
<rect x="2.5" y="1.5" width="27" height="27" rx="3.5" stroke="#AACCCC"/>
<path d="M16 17C16.5304 17 17.0391 16.7893 17.4142 16.4142C17.7893 16.0391 18 15.5304 18 15C18 14.4696 17.7893 13.9609 17.4142 13.5858C17.0391 13.2107 16.5304 13 16 13C15.4696 13 14.9609 13.2107 14.5858 13.5858C14.2107 13.9609 14 14.4696 14 15C14 15.5304 14.2107 16.0391 14.5858 16.4142C14.9609 16.7893 15.4696 17 16 17Z" fill="#004544"/>
<path fill-rule="evenodd" clip-rule="evenodd" d="M6.45703 15C7.73103 10.943 11.521 8 15.999 8C20.477 8 24.267 10.943 25.541 15C24.267 19.057 20.477 22 15.999 22C11.521 22 7.73103 19.057 6.45703 15ZM19.999 15C19.999 16.0609 19.5776 17.0783 18.8275 17.8284C18.0773 18.5786 17.0599 19 15.999 19C14.9382 19 13.9207 18.5786 13.1706 17.8284C12.4205 17.0783 11.999 16.0609 11.999 15C11.999 13.9391 12.4205 12.9217 13.1706 12.1716C13.9207 11.4214 14.9382 11 15.999 11C17.0599 11 18.0773 11.4214 18.8275 12.1716C19.5776 12.9217 19.999 13.9391 19.999 15Z" fill="#004544"/>
</g>
<defs>
<filter id="filter0_d_40718_42643" x="0" y="0" width="32" height="32" filterUnits="userSpaceOnUse" color-interpolation-filters="sRGB">
<feFlood flood-opacity="0" result="BackgroundImageFix"/>
<feColorMatrix in="SourceAlpha" type="matrix" values="0 0 0 0 0 0 0 0 0 0 0 0 0 0 0 0 0 0 127 0" result="hardAlpha"/>
<feOffset dy="1"/>
<feGaussianBlur stdDeviation="1"/>
<feColorMatrix type="matrix" values="0 0 0 0 0 0 0 0 0 0 0 0 0 0 0 0 0 0 0.05 0"/>
<feBlend mode="normal" in2="BackgroundImageFix" result="effect1_dropShadow_40718_42643"/>
<feBlend mode="normal" in="SourceGraphic" in2="effect1_dropShadow_40718_42643" result="shape"/>
</filter>
</defs>
</svg>
