<svg width="189" height="215" viewBox="0 0 189 215" fill="none" xmlns="http://www.w3.org/2000/svg">
<path opacity="0.9" d="M38.626 31.2251L1.5573 92.2645C0.862956 93.1956 0.5 94.3318 0.5 95.4838L16.2806 153.193C16.2806 153.193 64.3221 167 95.1048 167C125.888 167 173.929 153.193 173.929 153.193L188.132 100.439C188.132 99.3658 187.816 98.3085 187.201 97.409L150.747 31.3987C149.737 29.8995 148.049 29 146.234 29H43.013C41.2771 29.0158 39.6517 29.8364 38.626 31.2251Z" fill="#CCE1E0"/>
<g filter="url(#filter0_d_38795_71244)">
<path d="M137.5 60H51.5C48.7386 60 46.5 62.0828 46.5 64.6522V162.348C46.5 164.917 48.7386 167 51.5 167H137.5C140.261 167 142.5 164.917 142.5 162.348V64.6522C142.5 62.0828 140.261 60 137.5 60Z" fill="white"/>
</g>
<path d="M84 75H58C56.3431 75 55 76.3431 55 78C55 79.6569 56.3431 81 58 81H84C85.6569 81 87 79.6569 87 78C87 76.3431 85.6569 75 84 75Z" fill="#CCE4CD"/>
<path d="M102 88H58C56.3431 88 55 89.3431 55 91C55 92.6569 56.3431 94 58 94H102C103.657 94 105 92.6569 105 91C105 89.3431 103.657 88 102 88Z" fill="#DFEAFB"/>
<path d="M84 102H58C56.3431 102 55 103.343 55 105C55 106.657 56.3431 108 58 108H84C85.6569 108 87 106.657 87 105C87 103.343 85.6569 102 84 102Z" fill="#FDE5CD"/>
<path d="M102 115H58C56.3431 115 55 116.343 55 118C55 119.657 56.3431 121 58 121H102C103.657 121 105 119.657 105 118C105 116.343 103.657 115 102 115Z" fill="#DFEAFB"/>
<path d="M84 129H58C56.3431 129 55 130.343 55 132C55 133.657 56.3431 135 58 135H84C85.6569 135 87 133.657 87 132C87 130.343 85.6569 129 84 129Z" fill="#FDE5CD"/>
<path d="M102 142H58C56.3431 142 55 143.343 55 145C55 146.657 56.3431 148 58 148H102C103.657 148 105 146.657 105 145C105 143.343 103.657 142 102 142Z" fill="#DFEAFB"/>
<g filter="url(#filter1_d_38795_71244)">
<path d="M137 9H51C48.2386 9 46 11.2386 46 14V44C46 46.7614 48.2386 49 51 49H137C139.761 49 142 46.7614 142 44V14C142 11.2386 139.761 9 137 9Z" fill="#ABD2AB"/>
</g>
<path d="M84 20H58C56.3431 20 55 21.3431 55 23C55 24.6569 56.3431 26 58 26H84C85.6569 26 87 24.6569 87 23C87 21.3431 85.6569 20 84 20Z" fill="white"/>
<path d="M102 33H58C56.3431 33 55 34.3431 55 36C55 37.6569 56.3431 39 58 39H102C103.657 39 105 37.6569 105 36C105 34.3431 103.657 33 102 33Z" fill="white"/>
<path d="M74.7102 197.364V209H72.8352L67.3523 201.074H67.2557V209H65.1477V197.364H67.0341L72.5114 205.295H72.6136V197.364H74.7102ZM80.723 209.17C79.8707 209.17 79.1321 208.983 78.5071 208.608C77.8821 208.233 77.3973 207.708 77.0526 207.034C76.7116 206.36 76.5412 205.572 76.5412 204.67C76.5412 203.769 76.7116 202.979 77.0526 202.301C77.3973 201.623 77.8821 201.097 78.5071 200.722C79.1321 200.347 79.8707 200.159 80.723 200.159C81.5753 200.159 82.3139 200.347 82.9389 200.722C83.5639 201.097 84.0469 201.623 84.3878 202.301C84.7325 202.979 84.9048 203.769 84.9048 204.67C84.9048 205.572 84.7325 206.36 84.3878 207.034C84.0469 207.708 83.5639 208.233 82.9389 208.608C82.3139 208.983 81.5753 209.17 80.723 209.17ZM80.7344 207.523C81.1965 207.523 81.5829 207.396 81.8935 207.142C82.2041 206.884 82.4351 206.54 82.5866 206.108C82.742 205.676 82.8196 205.195 82.8196 204.665C82.8196 204.131 82.742 203.648 82.5866 203.216C82.4351 202.78 82.2041 202.434 81.8935 202.176C81.5829 201.919 81.1965 201.79 80.7344 201.79C80.2609 201.79 79.867 201.919 79.5526 202.176C79.242 202.434 79.009 202.78 78.8537 203.216C78.7022 203.648 78.6264 204.131 78.6264 204.665C78.6264 205.195 78.7022 205.676 78.8537 206.108C79.009 206.54 79.242 206.884 79.5526 207.142C79.867 207.396 80.2609 207.523 80.7344 207.523ZM93.858 209.153C93.1723 209.153 92.5587 208.977 92.017 208.625C91.4754 208.273 91.0473 207.761 90.733 207.091C90.4186 206.42 90.2614 205.606 90.2614 204.648C90.2614 203.678 90.4205 202.86 90.7386 202.193C91.0606 201.523 91.4943 201.017 92.0398 200.676C92.5852 200.331 93.1932 200.159 93.8636 200.159C94.375 200.159 94.7955 200.246 95.125 200.42C95.4545 200.591 95.7159 200.797 95.9091 201.04C96.1023 201.278 96.2519 201.504 96.358 201.716H96.4432V197.364H98.5057V209H96.483V207.625H96.358C96.2519 207.837 96.0985 208.062 95.8977 208.301C95.697 208.536 95.4318 208.737 95.1023 208.903C94.7727 209.07 94.358 209.153 93.858 209.153ZM94.4318 207.466C94.8674 207.466 95.2386 207.348 95.5455 207.114C95.8523 206.875 96.0852 206.544 96.2443 206.119C96.4034 205.695 96.483 205.201 96.483 204.636C96.483 204.072 96.4034 203.581 96.2443 203.165C96.089 202.748 95.858 202.424 95.5511 202.193C95.2481 201.962 94.875 201.847 94.4318 201.847C93.9735 201.847 93.5909 201.966 93.2841 202.205C92.9773 202.443 92.7462 202.773 92.5909 203.193C92.4356 203.614 92.358 204.095 92.358 204.636C92.358 205.182 92.4356 205.669 92.5909 206.097C92.75 206.521 92.983 206.856 93.2898 207.102C93.6004 207.345 93.9811 207.466 94.4318 207.466ZM103.209 209.176C102.656 209.176 102.158 209.078 101.714 208.881C101.275 208.68 100.927 208.384 100.669 207.994C100.415 207.604 100.288 207.123 100.288 206.551C100.288 206.059 100.379 205.652 100.561 205.33C100.743 205.008 100.991 204.75 101.305 204.557C101.62 204.364 101.974 204.218 102.368 204.119C102.766 204.017 103.177 203.943 103.601 203.898C104.112 203.845 104.527 203.797 104.845 203.756C105.163 203.71 105.394 203.642 105.538 203.551C105.686 203.456 105.76 203.311 105.76 203.114V203.08C105.76 202.652 105.633 202.32 105.379 202.085C105.125 201.85 104.76 201.733 104.283 201.733C103.779 201.733 103.379 201.843 103.084 202.062C102.792 202.282 102.595 202.542 102.493 202.841L100.572 202.568C100.724 202.038 100.974 201.595 101.322 201.239C101.671 200.879 102.097 200.61 102.601 200.432C103.105 200.25 103.661 200.159 104.271 200.159C104.692 200.159 105.11 200.208 105.527 200.307C105.944 200.405 106.324 200.568 106.669 200.795C107.014 201.019 107.29 201.324 107.499 201.71C107.711 202.097 107.817 202.58 107.817 203.159V209H105.839V207.801H105.771C105.646 208.044 105.47 208.271 105.243 208.483C105.019 208.691 104.737 208.86 104.396 208.989C104.059 209.114 103.663 209.176 103.209 209.176ZM103.743 207.665C104.156 207.665 104.514 207.583 104.817 207.42C105.12 207.254 105.353 207.034 105.516 206.761C105.682 206.489 105.766 206.191 105.766 205.869V204.841C105.701 204.894 105.591 204.943 105.436 204.989C105.285 205.034 105.114 205.074 104.925 205.108C104.735 205.142 104.548 205.172 104.362 205.199C104.177 205.225 104.016 205.248 103.879 205.267C103.572 205.309 103.298 205.377 103.055 205.472C102.813 205.566 102.622 205.699 102.482 205.869C102.341 206.036 102.271 206.252 102.271 206.517C102.271 206.896 102.41 207.182 102.686 207.375C102.963 207.568 103.315 207.665 103.743 207.665ZM114.243 200.273V201.864H109.226V200.273H114.243ZM110.464 198.182H112.521V206.375C112.521 206.652 112.563 206.864 112.646 207.011C112.733 207.155 112.847 207.254 112.987 207.307C113.127 207.36 113.283 207.386 113.453 207.386C113.582 207.386 113.699 207.377 113.805 207.358C113.915 207.339 113.999 207.322 114.055 207.307L114.402 208.915C114.292 208.953 114.135 208.994 113.93 209.04C113.73 209.085 113.483 209.112 113.192 209.119C112.677 209.134 112.213 209.057 111.8 208.886C111.387 208.712 111.059 208.443 110.817 208.08C110.578 207.716 110.461 207.261 110.464 206.716V198.182ZM118.474 209.176C117.921 209.176 117.423 209.078 116.98 208.881C116.541 208.68 116.192 208.384 115.935 207.994C115.681 207.604 115.554 207.123 115.554 206.551C115.554 206.059 115.645 205.652 115.827 205.33C116.009 205.008 116.257 204.75 116.571 204.557C116.885 204.364 117.24 204.218 117.634 204.119C118.031 204.017 118.442 203.943 118.866 203.898C119.378 203.845 119.793 203.797 120.111 203.756C120.429 203.71 120.66 203.642 120.804 203.551C120.952 203.456 121.026 203.311 121.026 203.114V203.08C121.026 202.652 120.899 202.32 120.645 202.085C120.391 201.85 120.026 201.733 119.548 201.733C119.045 201.733 118.645 201.843 118.349 202.062C118.058 202.282 117.861 202.542 117.759 202.841L115.838 202.568C115.99 202.038 116.24 201.595 116.588 201.239C116.937 200.879 117.363 200.61 117.866 200.432C118.37 200.25 118.927 200.159 119.537 200.159C119.957 200.159 120.376 200.208 120.793 200.307C121.209 200.405 121.59 200.568 121.935 200.795C122.279 201.019 122.556 201.324 122.764 201.71C122.976 202.097 123.082 202.58 123.082 203.159V209H121.105V207.801H121.037C120.912 208.044 120.736 208.271 120.509 208.483C120.285 208.691 120.003 208.86 119.662 208.989C119.325 209.114 118.929 209.176 118.474 209.176ZM119.009 207.665C119.421 207.665 119.779 207.583 120.082 207.42C120.385 207.254 120.618 207.034 120.781 206.761C120.948 206.489 121.031 206.191 121.031 205.869V204.841C120.967 204.894 120.857 204.943 120.702 204.989C120.55 205.034 120.38 205.074 120.19 205.108C120.001 205.142 119.813 205.172 119.628 205.199C119.442 205.225 119.281 205.248 119.145 205.267C118.838 205.309 118.563 205.377 118.321 205.472C118.079 205.566 117.887 205.699 117.747 205.869C117.607 206.036 117.537 206.252 117.537 206.517C117.537 206.896 117.675 207.182 117.952 207.375C118.228 207.568 118.58 207.665 119.009 207.665Z" fill="#4B5563"/>
<defs>
<filter id="filter0_d_38795_71244" x="40.5" y="51" width="108" height="119" filterUnits="userSpaceOnUse" color-interpolation-filters="sRGB">
<feFlood flood-opacity="0" result="BackgroundImageFix"/>
<feColorMatrix in="SourceAlpha" type="matrix" values="0 0 0 0 0 0 0 0 0 0 0 0 0 0 0 0 0 0 127 0" result="hardAlpha"/>
<feOffset dy="-3"/>
<feGaussianBlur stdDeviation="3"/>
<feColorMatrix type="matrix" values="0 0 0 0 0.788235 0 0 0 0 0.803922 0 0 0 0 0.85098 0 0 0 0.349 0"/>
<feBlend mode="normal" in2="BackgroundImageFix" result="effect1_dropShadow_38795_71244"/>
<feBlend mode="normal" in="SourceGraphic" in2="effect1_dropShadow_38795_71244" result="shape"/>
</filter>
<filter id="filter1_d_38795_71244" x="40" y="0" width="108" height="52" filterUnits="userSpaceOnUse" color-interpolation-filters="sRGB">
<feFlood flood-opacity="0" result="BackgroundImageFix"/>
<feColorMatrix in="SourceAlpha" type="matrix" values="0 0 0 0 0 0 0 0 0 0 0 0 0 0 0 0 0 0 127 0" result="hardAlpha"/>
<feOffset dy="-3"/>
<feGaussianBlur stdDeviation="3"/>
<feColorMatrix type="matrix" values="0 0 0 0 0.788235 0 0 0 0 0.803922 0 0 0 0 0.85098 0 0 0 0.349 0"/>
<feBlend mode="normal" in2="BackgroundImageFix" result="effect1_dropShadow_38795_71244"/>
<feBlend mode="normal" in="SourceGraphic" in2="effect1_dropShadow_38795_71244" result="shape"/>
</filter>
</defs>
</svg>
