<svg width="102" height="102" viewBox="0 0 102 102" fill="none" xmlns="http://www.w3.org/2000/svg">
<rect x="0.34589" y="0.34589" width="101.308" height="101.308" fill="#E8F6F1"/>
<rect x="0.34589" y="0.34589" width="101.308" height="101.308" stroke="#5E8B7B" stroke-width="0.691781" stroke-dasharray="3 3"/>
<path d="M59.7669 29.1666C59.7669 28.975 59.6908 28.7913 59.5554 28.6559C59.4199 28.5204 59.2362 28.4443 59.0447 28.4443H43.1558C42.9643 28.4443 42.7806 28.5204 42.6451 28.6559C42.5097 28.7913 42.4336 28.975 42.4336 29.1666V29.8888H59.7669V29.1666Z" fill="#5E8B7B"/>
<path d="M61.1968 32.0557C61.1968 31.8642 61.1207 31.6805 60.9853 31.545C60.8499 31.4096 60.6662 31.3335 60.4746 31.3335H41.6968C41.5053 31.3335 41.3216 31.4096 41.1861 31.545C41.0507 31.6805 40.9746 31.8642 40.9746 32.0557V32.7779H61.1968V32.0557Z" fill="#5E8B7B"/>
<path d="M61.1986 34.2217H40.8031C40.443 34.2217 40.0976 34.3647 39.843 34.6194C39.5884 34.874 39.4453 35.2194 39.4453 35.5795V48.7528C39.4453 49.1129 39.5884 49.4583 39.843 49.7129C40.0976 49.9675 40.443 50.1106 40.8031 50.1106H61.1986C61.5588 50.1106 61.9041 49.9675 62.1587 49.7129C62.4134 49.4583 62.5564 49.1129 62.5564 48.7528V35.5795C62.5564 35.2194 62.4134 34.874 62.1587 34.6194C61.9041 34.3647 61.5588 34.2217 61.1986 34.2217ZM44.1831 36.7133C44.6116 36.7133 45.0305 36.8404 45.3868 37.0785C45.7431 37.3166 46.0208 37.655 46.1848 38.0509C46.3488 38.4468 46.3917 38.8824 46.3081 39.3027C46.2245 39.723 46.0182 40.1091 45.7152 40.4121C45.4121 40.7151 45.0261 40.9214 44.6058 41.005C44.1855 41.0886 43.7498 41.0457 43.3539 40.8818C42.958 40.7178 42.6196 40.4401 42.3816 40.0837C42.1435 39.7274 42.0164 39.3085 42.0164 38.88C42.0164 38.3054 42.2447 37.7543 42.651 37.3479C43.0574 36.9416 43.6085 36.7133 44.1831 36.7133ZM59.6675 47.2217H42.3342L47.722 41.8267C47.818 41.7314 47.9478 41.678 48.0831 41.678C48.2184 41.678 48.3482 41.7314 48.4442 41.8267L51.102 44.4845L54.7636 40.7217C54.8597 40.6264 54.9895 40.573 55.1248 40.573C55.26 40.573 55.3898 40.6264 55.4859 40.7217L59.6675 44.9033V47.2217Z" fill="#5E8B7B"/>
<path d="M23.512 63.7273H24.6128V68.5107C24.6128 69.0196 24.4933 69.4706 24.2542 69.8636C24.0151 70.2543 23.6789 70.562 23.2457 70.7869C22.8124 71.0095 22.3046 71.1207 21.7222 71.1207C21.1422 71.1207 20.6356 71.0095 20.2023 70.7869C19.7691 70.562 19.4329 70.2543 19.1938 69.8636C18.9547 69.4706 18.8351 69.0196 18.8351 68.5107V63.7273H19.9324V68.4219C19.9324 68.7509 20.0046 69.0433 20.1491 69.299C20.2958 69.5547 20.503 69.7559 20.7705 69.9027C21.038 70.0471 21.3553 70.1193 21.7222 70.1193C22.0915 70.1193 22.4099 70.0471 22.6775 69.9027C22.9474 69.7559 23.1533 69.5547 23.2954 69.299C23.4398 69.0433 23.512 68.7509 23.512 68.4219V63.7273ZM26.123 73.0455V65.5455H27.1599V66.4297H27.2487C27.3102 66.3161 27.399 66.1847 27.515 66.0355C27.631 65.8864 27.792 65.7562 27.998 65.6449C28.2039 65.5312 28.4762 65.4744 28.8147 65.4744C29.2551 65.4744 29.6481 65.5857 29.9937 65.8082C30.3393 66.0308 30.6104 66.3516 30.8069 66.7706C31.0058 67.1896 31.1052 67.6939 31.1052 68.2834C31.1052 68.8729 31.007 69.3783 30.8105 69.7997C30.614 70.2187 30.3441 70.5419 30.0008 70.7692C29.6575 70.9941 29.2657 71.1065 28.8254 71.1065C28.4939 71.1065 28.2229 71.0509 28.0122 70.9396C27.8038 70.8284 27.6405 70.6982 27.5221 70.549C27.4037 70.3999 27.3126 70.2673 27.2487 70.1513H27.1847V73.0455H26.123ZM27.1634 68.2727C27.1634 68.6562 27.2191 68.9924 27.3303 69.2812C27.4416 69.5701 27.6026 69.7962 27.8133 69.9595C28.024 70.1205 28.282 70.201 28.5874 70.201C28.9047 70.201 29.1698 70.117 29.3829 69.9489C29.596 69.7784 29.757 69.5476 29.8659 69.2564C29.9771 68.9652 30.0328 68.6373 30.0328 68.2727C30.0328 67.9129 29.9783 67.5897 29.8694 67.3033C29.7629 67.0168 29.6019 66.7907 29.3865 66.625C29.1734 66.4593 28.907 66.3764 28.5874 66.3764C28.2797 66.3764 28.0193 66.4557 27.8062 66.6143C27.5955 66.773 27.4357 66.9943 27.3268 67.2784C27.2179 67.5625 27.1634 67.8939 27.1634 68.2727ZM33.3566 63.7273V71H32.2948V63.7273H33.3566ZM37.0827 71.1101C36.5713 71.1101 36.125 70.9929 35.7439 70.7585C35.3627 70.5241 35.0668 70.1963 34.8561 69.7749C34.6454 69.3535 34.54 68.861 34.54 68.2976C34.54 67.7318 34.6454 67.237 34.8561 66.8132C35.0668 66.3894 35.3627 66.0604 35.7439 65.826C36.125 65.5916 36.5713 65.4744 37.0827 65.4744C37.594 65.4744 38.0403 65.5916 38.4214 65.826C38.8026 66.0604 39.0985 66.3894 39.3092 66.8132C39.5199 67.237 39.6253 67.7318 39.6253 68.2976C39.6253 68.861 39.5199 69.3535 39.3092 69.7749C39.0985 70.1963 38.8026 70.5241 38.4214 70.7585C38.0403 70.9929 37.594 71.1101 37.0827 71.1101ZM37.0862 70.2188C37.4176 70.2188 37.6923 70.1312 37.9101 69.956C38.1279 69.7808 38.2889 69.5476 38.393 69.2564C38.4996 68.9652 38.5528 68.6444 38.5528 68.294C38.5528 67.946 38.4996 67.6264 38.393 67.3352C38.2889 67.0417 38.1279 66.8061 37.9101 66.6286C37.6923 66.451 37.4176 66.3622 37.0862 66.3622C36.7524 66.3622 36.4754 66.451 36.2552 66.6286C36.0374 66.8061 35.8753 67.0417 35.7687 67.3352C35.6646 67.6264 35.6125 67.946 35.6125 68.294C35.6125 68.6444 35.6646 68.9652 35.7687 69.2564C35.8753 69.5476 36.0374 69.7808 36.2552 69.956C36.4754 70.1312 36.7524 70.2188 37.0862 70.2188ZM42.3978 71.1207C42.0522 71.1207 41.7397 71.0568 41.4603 70.929C41.181 70.7988 40.9596 70.6106 40.7963 70.3643C40.6353 70.1181 40.5548 69.8163 40.5548 69.4588C40.5548 69.151 40.614 68.8977 40.7323 68.6989C40.8507 68.5 41.0105 68.3426 41.2117 68.2266C41.413 68.1106 41.6379 68.023 41.8865 67.9638C42.135 67.9046 42.3883 67.8596 42.6464 67.8288C42.9731 67.791 43.2383 67.7602 43.4419 67.7365C43.6454 67.7105 43.7934 67.669 43.8857 67.6122C43.9781 67.5554 44.0242 67.4631 44.0242 67.3352V67.3104C44.0242 67.0002 43.9366 66.7599 43.7615 66.5895C43.5886 66.419 43.3306 66.3338 42.9873 66.3338C42.6298 66.3338 42.3481 66.4131 42.1421 66.5717C41.9385 66.728 41.7977 66.902 41.7195 67.0938L40.7217 66.8665C40.8401 66.535 41.0129 66.2675 41.2401 66.0639C41.4698 65.858 41.7338 65.7088 42.032 65.6165C42.3303 65.5218 42.644 65.4744 42.9731 65.4744C43.1909 65.4744 43.4217 65.5005 43.6656 65.5526C43.9118 65.6023 44.1414 65.6946 44.3545 65.8295C44.5699 65.9645 44.7463 66.1574 44.8836 66.4084C45.0209 66.657 45.0896 66.9801 45.0896 67.3778V71H44.0526V70.2543H44.01C43.9414 70.3916 43.8384 70.5265 43.7011 70.6591C43.5638 70.7917 43.3874 70.9018 43.172 70.9893C42.9565 71.0769 42.6985 71.1207 42.3978 71.1207ZM42.6286 70.2685C42.9222 70.2685 43.1731 70.2105 43.3815 70.0945C43.5922 69.9785 43.752 69.8269 43.8609 69.6399C43.9722 69.4505 44.0278 69.2481 44.0278 69.0327V68.3295C43.9899 68.3674 43.9165 68.4029 43.8076 68.4361C43.7011 68.4669 43.5792 68.4941 43.4419 68.5178C43.3045 68.5391 43.1708 68.5592 43.0406 68.5781C42.9104 68.5947 42.8015 68.6089 42.7139 68.6207C42.5079 68.6468 42.3197 68.6906 42.1492 68.7521C41.9811 68.8137 41.8462 68.9025 41.7444 69.0185C41.645 69.1321 41.5953 69.2836 41.5953 69.473C41.5953 69.7358 41.6923 69.9347 41.8865 70.0696C42.0806 70.2022 42.328 70.2685 42.6286 70.2685ZM48.5457 71.1065C48.1054 71.1065 47.7124 70.9941 47.3667 70.7692C47.0235 70.5419 46.7536 70.2187 46.5571 69.7997C46.363 69.3783 46.2659 68.8729 46.2659 68.2834C46.2659 67.6939 46.3641 67.1896 46.5606 66.7706C46.7595 66.3516 47.0318 66.0308 47.3774 65.8082C47.723 65.5857 48.1148 65.4744 48.5528 65.4744C48.8914 65.4744 49.1636 65.5312 49.3696 65.6449C49.5779 65.7562 49.7389 65.8864 49.8525 66.0355C49.9685 66.1847 50.0585 66.3161 50.1224 66.4297H50.1863V63.7273H51.2481V71H50.2112V70.1513H50.1224C50.0585 70.2673 49.9662 70.3999 49.8454 70.549C49.7271 70.6982 49.5637 70.8284 49.3554 70.9396C49.147 71.0509 48.8772 71.1065 48.5457 71.1065ZM48.7801 70.201C49.0855 70.201 49.3435 70.1205 49.5542 69.9595C49.7673 69.7962 49.9283 69.5701 50.0372 69.2812C50.1485 68.9924 50.2041 68.6562 50.2041 68.2727C50.2041 67.8939 50.1497 67.5625 50.0407 67.2784C49.9318 66.9943 49.772 66.773 49.5613 66.6143C49.3506 66.4557 49.0902 66.3764 48.7801 66.3764C48.4605 66.3764 48.1942 66.4593 47.9811 66.625C47.768 66.7907 47.607 67.0168 47.4981 67.3033C47.3916 67.5897 47.3383 67.9129 47.3383 68.2727C47.3383 68.6373 47.3928 68.9652 47.5017 69.2564C47.6106 69.5476 47.7716 69.7784 47.9846 69.9489C48.2001 70.117 48.4652 70.201 48.7801 70.201ZM56.5926 63.7273V71H55.4953V63.7273H56.5926ZM58.1054 71V65.5455H59.1246V66.4332H59.192C59.3057 66.1326 59.4915 65.8982 59.7496 65.7301C60.0076 65.5597 60.3166 65.4744 60.6764 65.4744C61.041 65.4744 61.3464 65.5597 61.5926 65.7301C61.8412 65.9006 62.0247 66.1349 62.143 66.4332H62.1998C62.33 66.142 62.5372 65.91 62.8213 65.7372C63.1054 65.562 63.4439 65.4744 63.8369 65.4744C64.3317 65.4744 64.7354 65.6295 65.0479 65.9396C65.3627 66.2498 65.5202 66.7173 65.5202 67.3423V71H64.4584V67.4418C64.4584 67.0724 64.3577 66.8049 64.1565 66.6392C63.9553 66.4735 63.715 66.3906 63.4356 66.3906C63.09 66.3906 62.8213 66.4972 62.6295 66.7102C62.4378 66.9209 62.3419 67.192 62.3419 67.5234V71H61.2836V67.3743C61.2836 67.0784 61.1913 66.8404 61.0067 66.6605C60.822 66.4806 60.5817 66.3906 60.2858 66.3906C60.0845 66.3906 59.8987 66.4439 59.7282 66.5504C59.5602 66.6546 59.424 66.8002 59.3199 66.9872C59.2181 67.1742 59.1672 67.3909 59.1672 67.6371V71H58.1054ZM68.5306 71.1207C68.185 71.1207 67.8725 71.0568 67.5931 70.929C67.3138 70.7988 67.0924 70.6106 66.9291 70.3643C66.7681 70.1181 66.6876 69.8163 66.6876 69.4588C66.6876 69.151 66.7468 68.8977 66.8651 68.6989C66.9835 68.5 67.1433 68.3426 67.3445 68.2266C67.5458 68.1106 67.7707 68.023 68.0193 67.9638C68.2678 67.9046 68.5212 67.8596 68.7792 67.8288C69.1059 67.791 69.3711 67.7602 69.5747 67.7365C69.7783 67.7105 69.9262 67.669 70.0186 67.6122C70.1109 67.5554 70.157 67.4631 70.157 67.3352V67.3104C70.157 67.0002 70.0695 66.7599 69.8943 66.5895C69.7214 66.419 69.4634 66.3338 69.1201 66.3338C68.7626 66.3338 68.4809 66.4131 68.2749 66.5717C68.0713 66.728 67.9305 66.902 67.8524 67.0938L66.8545 66.8665C66.9729 66.535 67.1457 66.2675 67.373 66.0639C67.6026 65.858 67.8666 65.7088 68.1649 65.6165C68.4632 65.5218 68.7768 65.4744 69.1059 65.4744C69.3237 65.4744 69.5545 65.5005 69.7984 65.5526C70.0446 65.6023 70.2742 65.6946 70.4873 65.8295C70.7027 65.9645 70.8791 66.1574 71.0164 66.4084C71.1537 66.657 71.2224 66.9801 71.2224 67.3778V71H70.1855V70.2543H70.1428C70.0742 70.3916 69.9712 70.5265 69.8339 70.6591C69.6966 70.7917 69.5202 70.9018 69.3048 70.9893C69.0893 71.0769 68.8313 71.1207 68.5306 71.1207ZM68.7615 70.2685C69.055 70.2685 69.306 70.2105 69.5143 70.0945C69.725 69.9785 69.8848 69.8269 69.9937 69.6399C70.105 69.4505 70.1606 69.2481 70.1606 69.0327V68.3295C70.1227 68.3674 70.0493 68.4029 69.9404 68.4361C69.8339 68.4669 69.712 68.4941 69.5747 68.5178C69.4374 68.5391 69.3036 68.5592 69.1734 68.5781C69.0432 68.5947 68.9343 68.6089 68.8467 68.6207C68.6407 68.6468 68.4525 68.6906 68.282 68.7521C68.114 68.8137 67.979 68.9025 67.8772 69.0185C67.7778 69.1321 67.7281 69.2836 67.7281 69.473C67.7281 69.7358 67.8251 69.9347 68.0193 70.0696C68.2134 70.2022 68.4608 70.2685 68.7615 70.2685ZM74.9236 73.1591C74.4903 73.1591 74.1175 73.1023 73.805 72.9886C73.4948 72.875 73.2415 72.7247 73.045 72.5376C72.8485 72.3506 72.7017 72.1458 72.6047 71.9233L73.5173 71.5469C73.5812 71.651 73.6665 71.7611 73.773 71.8771C73.8819 71.9955 74.0287 72.0961 74.2133 72.179C74.4004 72.2618 74.6407 72.3033 74.9342 72.3033C75.3367 72.3033 75.6693 72.205 75.9321 72.0085C76.1949 71.8144 76.3263 71.5043 76.3263 71.0781V70.0057H76.2588C76.1949 70.1217 76.1025 70.2507 75.9818 70.3928C75.8634 70.5348 75.7001 70.6579 75.4917 70.7621C75.2834 70.8662 75.0123 70.9183 74.6785 70.9183C74.2477 70.9183 73.8594 70.8177 73.5138 70.6165C73.1705 70.4129 72.8982 70.1134 72.697 69.718C72.4981 69.3203 72.3987 68.8314 72.3987 68.2514C72.3987 67.6714 72.497 67.1742 72.6934 66.7599C72.8923 66.3456 73.1646 66.0284 73.5102 65.8082C73.8559 65.5857 74.2477 65.4744 74.6856 65.4744C75.0242 65.4744 75.2976 65.5312 75.5059 65.6449C75.7143 65.7562 75.8765 65.8864 75.9925 66.0355C76.1108 66.1847 76.202 66.3161 76.2659 66.4297H76.344V65.5455H77.3845V71.1207C77.3845 71.5895 77.2756 71.9742 77.0578 72.2749C76.84 72.5755 76.5452 72.7981 76.1736 72.9425C75.8042 73.0869 75.3876 73.1591 74.9236 73.1591ZM74.9129 70.0376C75.2183 70.0376 75.4764 69.9666 75.6871 69.8246C75.9001 69.6802 76.0611 69.4742 76.17 69.2067C76.2813 68.9368 76.3369 68.6136 76.3369 68.2372C76.3369 67.8703 76.2825 67.5471 76.1736 67.2678C76.0647 66.9884 75.9049 66.7706 75.6942 66.6143C75.4835 66.4557 75.223 66.3764 74.9129 66.3764C74.5933 66.3764 74.327 66.4593 74.1139 66.625C73.9008 66.7884 73.7398 67.0109 73.6309 67.2926C73.5244 67.5743 73.4711 67.8892 73.4711 68.2372C73.4711 68.5947 73.5256 68.9084 73.6345 69.1783C73.7434 69.4482 73.9044 69.6589 74.1175 69.8104C74.3329 69.9619 74.598 70.0376 74.9129 70.0376ZM81.1594 71.1101C80.622 71.1101 80.1591 70.9953 79.7709 70.7656C79.385 70.5336 79.0867 70.2081 78.876 69.7891C78.6676 69.3677 78.5635 68.8741 78.5635 68.3082C78.5635 67.7495 78.6676 67.2571 78.876 66.831C79.0867 66.4048 79.3802 66.0722 79.7567 65.8331C80.1354 65.594 80.5782 65.4744 81.0848 65.4744C81.3925 65.4744 81.6908 65.5253 81.9797 65.6271C82.2685 65.7289 82.5277 65.8887 82.7574 66.1065C82.987 66.3243 83.1681 66.6072 83.3007 66.9553C83.4333 67.3009 83.4996 67.7211 83.4996 68.2159V68.5923H79.1636V67.7969H82.4591C82.4591 67.5175 82.4023 67.2701 82.2886 67.0547C82.175 66.8369 82.0152 66.6652 81.8092 66.5398C81.6056 66.4143 81.3665 66.3516 81.0919 66.3516C80.7936 66.3516 80.5332 66.425 80.3106 66.5717C80.0905 66.7161 79.92 66.9055 79.7993 67.1399C79.6809 67.3719 79.6217 67.6241 79.6217 67.8963V68.5178C79.6217 68.8823 79.6856 69.1925 79.8135 69.4482C79.9437 69.7038 80.1248 69.8991 80.3568 70.0341C80.5888 70.1667 80.8599 70.233 81.17 70.233C81.3712 70.233 81.5547 70.2045 81.7204 70.1477C81.8862 70.0885 82.0294 70.0009 82.1501 69.8849C82.2709 69.7689 82.3632 69.6257 82.4271 69.4553L83.4321 69.6364C83.3516 69.9323 83.2072 70.1915 82.9988 70.4141C82.7929 70.6342 82.5336 70.8059 82.2211 70.929C81.911 71.0497 81.5571 71.1101 81.1594 71.1101Z" fill="#5E8B7B"/>
</svg>
