<svg width="32" height="32" viewBox="0 0 32 32" fill="none" xmlns="http://www.w3.org/2000/svg">
<g filter="url(#filter0_d_40718_42647)">
<rect x="2" y="1" width="28" height="28" rx="4" fill="#F1FFFE"/>
<rect x="2.5" y="1.5" width="27" height="27" rx="3.5" stroke="#AACCCC"/>
<path d="M23.414 7.58557C23.0389 7.21063 22.5303 7 22 7C21.4697 7 20.9611 7.21063 20.586 7.58557L13 15.1716V17.9996H15.828L23.414 10.4136C23.7889 10.0385 23.9996 9.5299 23.9996 8.99957C23.9996 8.46924 23.7889 7.96063 23.414 7.58557Z" fill="#004544"/>
<path fill-rule="evenodd" clip-rule="evenodd" d="M8 11C8 10.4696 8.21071 9.96086 8.58579 9.58579C8.96086 9.21071 9.46957 9 10 9H14C14.2652 9 14.5196 9.10536 14.7071 9.29289C14.8946 9.48043 15 9.73478 15 10C15 10.2652 14.8946 10.5196 14.7071 10.7071C14.5196 10.8946 14.2652 11 14 11H10V21H20V17C20 16.7348 20.1054 16.4804 20.2929 16.2929C20.4804 16.1054 20.7348 16 21 16C21.2652 16 21.5196 16.1054 21.7071 16.2929C21.8946 16.4804 22 16.7348 22 17V21C22 21.5304 21.7893 22.0391 21.4142 22.4142C21.0391 22.7893 20.5304 23 20 23H10C9.46957 23 8.96086 22.7893 8.58579 22.4142C8.21071 22.0391 8 21.5304 8 21V11Z" fill="#004544"/>
</g>
<defs>
<filter id="filter0_d_40718_42647" x="0" y="0" width="32" height="32" filterUnits="userSpaceOnUse" color-interpolation-filters="sRGB">
<feFlood flood-opacity="0" result="BackgroundImageFix"/>
<feColorMatrix in="SourceAlpha" type="matrix" values="0 0 0 0 0 0 0 0 0 0 0 0 0 0 0 0 0 0 127 0" result="hardAlpha"/>
<feOffset dy="1"/>
<feGaussianBlur stdDeviation="1"/>
<feColorMatrix type="matrix" values="0 0 0 0 0 0 0 0 0 0 0 0 0 0 0 0 0 0 0.05 0"/>
<feBlend mode="normal" in2="BackgroundImageFix" result="effect1_dropShadow_40718_42647"/>
<feBlend mode="normal" in="SourceGraphic" in2="effect1_dropShadow_40718_42647" result="shape"/>
</filter>
</defs>
</svg>
