<svg width="24" height="24" viewBox="0 0 24 24" fill="none" xmlns="http://www.w3.org/2000/svg">
<path d="M11.4705 5.33187C11.9911 4.81125 12.8352 4.81125 13.3558 5.33187L19.0797 11.0557C19.6004 11.5764 19.6004 12.4206 19.0797 12.9413L13.3558 18.6652C12.8352 19.1858 11.9911 19.1858 11.4705 18.6652C10.9499 18.1446 10.9499 17.3005 11.4705 16.7799L15.309 12.9413C15.8297 12.4206 15.8297 11.5764 15.309 11.0557L11.4705 7.21721C10.9499 6.69658 10.9499 5.85249 11.4705 5.33187Z" fill="#23246C"/>
<path d="M6.68908 5.33187L12.4129 11.0557C12.9336 11.5764 12.9336 12.4206 12.4129 12.9413L6.68908 18.6652C6.16846 19.1858 5.32437 19.1858 4.80375 18.6652C4.28313 18.1446 4.28313 17.3005 4.80375 16.7799L8.64227 12.9413C9.16297 12.4206 9.16297 11.5764 8.64227 11.0557L4.80375 7.21721C4.28313 6.69658 4.28313 5.85249 4.80375 5.33187C5.32437 4.81125 6.16846 4.81125 6.68908 5.33187Z" fill="#2A3593"/>
</svg>
